<?xml version="1.0" encoding="utf-8"?><!DOCTYPE svg PUBLIC "-//W3C//DTD SVG 1.1//EN" "http://www.w3.org/Graphics/SVG/1.1/DTD/svg11.dtd"><svg version="1.1" xmlns="http://www.w3.org/2000/svg" xmlns:xlink="http://www.w3.org/1999/xlink" width="32" height="32" viewBox="0 0 32 32" data-tags="googleplus"><g fill="#444" transform="scale(0.03125 0.03125)"><path fill="rgb(220, 78, 65)" d="M325.76 465.451v111.744h184.96c-7.381 48-55.893 140.587-184.789 140.587-111.104 0-201.856-92.16-201.856-205.781 0-113.579 90.539-205.739 201.728-205.739 63.36 0 105.771 27.008 129.92 50.261l88.448-85.077c-56.747-53.12-130.389-85.12-218.24-85.12-180.352-0.085-325.931 145.835-325.931 325.675s145.664 325.76 325.76 325.76c188.16 0 312.832-132.181 312.832-318.336 0-21.376-2.304-37.76-5.12-53.973h-307.712zM1024 465.451h-93.141v-93.141h-93.141v93.141h-93.099v93.056h93.184v93.184h93.397v-93.184h92.8z" /></g></svg>